/* XPM */
static char *icon[] = {
/* columns rows colors chars-per-pixel */
"48 52 85 1",
"  c #000000",
". c #0e0e0e",
"X c gray12",
"o c #232323",
"O c #272534",
"+ c #454544",
"@ c #484642",
"# c #4a4845",
"$ c #514f4b",
"% c #53514c",
"& c #545352",
"* c #585652",
"= c #5c5955",
"- c #5a5a5a",
"; c #63625d",
": c #636363",
"> c #686661",
", c #6c6a64",
"< c #6b6b6a",
"1 c #706d67",
"2 c #716f6a",
"3 c #736f79",
"4 c #75746e",
"5 c gray44",
"6 c #787770",
"7 c #7c7a76",
"8 c #7a7a79",
"9 c #625b81",
"0 c #716a8c",
"q c #7a7494",
"w c #807d74",
"e c #807a99",
"r c #87847c",
"t c #848382",
"y c #8c8881",
"u c #8a8a8a",
"i c #918f87",
"p c #96938d",
"a c #929290",
"s c #989694",
"d c #9a9892",
"f c #9c9b9b",
"g c #938ea8",
"h c #9692ab",
"j c #9894ac",
"k c #9d98b0",
"l c #a0a09f",
"z c #a3a3a2",
"x c #aaa8a4",
"c c #acacab",
"v c #a8a4b9",
"b c #aca8bc",
"n c #b0aea6",
"m c #b2afa8",
"M c #b2b1ae",
"N c #bab5ab",
"B c #b4b4b4",
"V c #bdbbb5",
"C c #bcbcbb",
"Z c #bebccb",
"A c #c3c1bd",
"S c #c2c2c2",
"D c #c3c1cf",
"F c #cbcbcb",
"G c #c8c6d3",
"H c #cccad6",
"J c #d3d3d2",
"K c #d4d2dc",
"L c #dad9d4",
"P c #dcdcdc",
"I c #dbdae2",
"U c #e0e0df",
"Y c #e4e4e3",
"T c #e3e2e9",
"R c #e8e7ec",
"E c #e8e8e6",
"W c #ebebea",
"Q c #f0eeec",
"! c #f0f0ee",
"~ c #f4f4f3",
"^ c #f8f7f6",
"/ c #f8f7f9",
"( c #f8f8f7",
") c #fdfdfd",
"_ c None",
/* pixels */
"                                   oX   ________",
" P)))))))))))))))))))))))))))))))))(H5    ______",
" ))S))))))))))))))))))))))))))))))))^WS    _____",
" ))S)))))))))))))))))))))))))))))))^L)!B    ____",
" ))))))))))))))))))))))))))))))))))^J))WM.   ___",
" ))S)))))))))))))))))))))))))))))))~B)))Pl.   __",
" ))S)))))))))))))))))))))))))))))))~B)/))Fz    _",
" ))))))))))))))))))))))))))))))))))^cWSFBSFx   _",
" ))S))))))))))))))))))))))))))^)))/~c%++++-x    ",
" ))S))))))))))))))))))))))^)))))()/~!Sxlu<5+    ",
" )))))))))))))))))))))))))))))~)/))(/(/RDFC8    ",
" ))S)))))))))))))))()~~))~~)^(((/(((/(~/^B)x    ",
" ))S))))))))))))u            tW^)~~^)~~~~B)M    ",
" )))))))))))())) S)))))))))^c PW~^(~~~~~~)~B    ",
" ))C)))))))^))(( )YYYYYUPIPPB ST~~~~~~~~~B)B    ",
" ))S))))))))())~ )<:tE-lPUIYB SU!~~~~!!~~B)B    ",
" ))))))()()))))( )WWWW!WWWRRC SU!~~!~!~!!)!B    ",
" ))C))/)()(/^~)~ )u<f~azRca~S CP!~!~!~!!!B)B    ",
" ))C)))(/))(())~ )))))))))/)J CUW~!~!!!!WB)B    ",
" )))((())((((^^~ )ccTC(CzFW)F CPW~!!!WW!W)WB    ",
" ))C)))(((/()~^J ^IIUPIPPYEUF uPE!!W!WWW!B)B    ",
" ))C)/^^((((^~J  )t<tJ58JtzHM  sYEW!W!WWWM)B    ",
" )))((/(~/(/^J ) Fxxzxzxzlzzf r fUWWWWWWW)WB    ",
" ))B)(~/(/~~J )Ey%          wrxN fYWWWWWWM)B    ",
" )~B)~~)^~~~ ))~))))))))))))))))E FYEWWEEM)B    ",
" ))))~~!~~~! SuU^))^^~))^!!WYEfUN APEEWEE)EB    ",
" )^C)~~~~!~! z<~CJBJBJVJxJBFBL<si VLYEEEEM)B    ",
" )~B)~~~~!~! s<YQ^^)^)^^)~~~~!=tu BJYEEWRM)B    ",
" )~)~!~!~!!W f,-=$@#####@@@@@$%76 BJYEERE)EB    ",
" )~B)~~!!!!W ast,4=;=%==*%%===;;4 BJYYEEYc)B    ",
" )~B)!!!!!!W 7pppw764442,=;><,44, BJTYYYYc)B    ",
" )!)!!!!!!QW-                    +BLYYEYY)YB    ",
" )!B)!W!!WWWU ymNVVVAVVxmxmdddww cAPTYYYYc)B    ",
" )QB)!!WQWWWY-                  @BFPIIYYYc)b    ",
" )!)Q!WWWWWWEUFCBBBBBBBBZZZZZZZZZZZZZZZZZZZZZZZ3",
" )WB)WWWWWWWEYPLLJJJLJJJZ9999999999999933999993O",
" )WB)WWWWWWEWWEYYYYYYYYYZ99999))))Iq9eI)IZ99999O",
" )W)EWWEEWEWEEEEEEEEYEYYZ99999))9g)T9!)q0Z99999O",
" )WM)EWWEWEEEEERYEYEEYYYZ99999))39)/9/)G0999999O",
" )WM)WEEREEEEYEEEEYYYYYYZ99999))9g)K9h))/k99999O",
" )W)WEREEEEYEYEEYEYYYYYUZ99999)))/H093qD)/99999O",
" )RM)EYEYEYEETYYYYYYYUYYZ99993))99999G0q)R99999O",
" )Ec)EEYEEUEEEYYYYYYYYYYZ99999/)99999kT)Ie99999O",
" )E)EETEYEEYYUYYYYUYYUYUZ9999993999999999999999O",
" )Ec)EYEYEYYUYUYYYYUYUYU3OOOOOOOOOOOOOOOOOOOOOOO",
" )Ec)YEUYUYYYYYYUYUUUYUYIzzkzzzlzzlzlzzlz8Cu    ",
" PE)EYYYYUYUYYUYYYUYYUYYYYYUYUPYUUIYYUUUI)Yf    ",
" SBBBBBBBBBBBBBBBBBBBBBBMBBBBBBBBBBBBBBBBBfu    ",
"                                                ",
"_                                               ",
"_                                              _",
"_                                             __"
};
