/* XPM */
static char * icon_48_xpm[] = {
"48 48 17 1",
" 	c None",
".	c #03203B",
"+	c #256865",
"@	c #587881",
"#	c #788E94",
"$	c #1F8A3F",
"%	c #9BFEAE",
"&	c #6B858C",
"*	c #8FF38B",
"=	c #20A541",
"-	c #6C8C94",
";	c #7FDF5E",
">	c #32DD41",
",	c #CBD2CC",
"'	c #114B50",
")	c #5EED67",
"!	c #BFC0C1",
"                                                ",
"                                                ",
"                                                ",
"                                                ",
"                                                ",
"                                                ",
"                +++'+'++@+'+'''                 ",
"               '+@#!!!#@+#!!!!&@'               ",
"              @#,,,,,!,,,,,!!!!,!@'             ",
"            '@,,,!!!!!!!!!!!!!!!,,++            ",
"           '@,,!!!!!!!!,!!!!!!!!!,,&'           ",
"          +',,,!,,!,,,,!,!,,,,,,!,,,@'          ",
"         ''$%,%,*;;;;;;,*,*,*;,%,%,%*$.         ",
"   %*)>>$'=)*%%)>>>))>>;))**%)*%%%%%%='$**));   ",
"   %%%*>+=>>=$+$+==)*)>))>))*))%%%%%%%''=*%%*   ",
"   %%*)=.>=.'...'.$))))>))>)*%)%%))%%%=.+)%%%   ",
"   %%%)+$)>'.@))>=>>)*)))>)))%%%%*)>%%%..>)**   ",
"   %%%>'>)*=.'))%**))**)))>))!%%)%%>*%%+.=%)>   ",
"   %%%='>))%$')%%%%)))))%)>+...$)%))>%))..,*>   ",
"   %*)+')))%%))%%*%)>>>)%)>=++...>))>))%=.>))   ",
"   *))''>>)%%)>)))))>>>>))>)))>='.+=>>%%*.;*)   ",
"   *))'$>>%)%)>)))))))>)))))%%))='''>)%%*.=%*   ",
"   %**'+>>)*))>))))))>>>>>)>*)))$.'+>>%%%'-%*   ",
"   *;;''>>**;;>;;)))*)))>))>))>>>=))>)***=+*%   ",
"      .',,,,,,,,,,,,,,,,,,,,,,,,,,,,,,,,,#      ",
"       '!,!,!,!!,,!@@@@,,!,!!!,!,!,!,!!,,#      ",
"       '-,!!!!!!!!,#&+',,!!!!!!!!!!!!!!!,#      ",
"       '&,!!!!!!!!!,,,,,!!!!!!!!!!!!!!!!,@      ",
"       '@,!!!!!!!!!!!!!!!!!!!!!!!!!!!,!!,+      ",
"       +&,,!!!!!,,,,,!!!!!!!!!,!!!!!!!!!!'      ",
"        '!,!!!,,!+@#,,,!!!,!!!!!!!!!!!,,+'      ",
"        +#,!!!!,'@@+'@!,!!!!!!!!!,!!!,,&+       ",
"        ++,,!!!,#'&@''.!!!!!!!!!!!!!!,#+        ",
"         +!,!!!!,!,,,!&,,!!!!,!!!!!!,!'+        ",
"         +@,!!!!!!!,!,!!!!!!!!!!!!!,,++         ",
"         ''!,!!!!!!!!!,!!!!!!!!!,!,!'+          ",
"          ++!,!!!!!!!!!!!!!!!!!!!,,@'           ",
"           +@,,!!!!!!!!!!!!!!,!!,,+'            ",
"            '@,,,!!!!!!,!!!!!!,,#'              ",
"             '+#,,!,!!!!!!,,,,!+'               ",
"              +'&#,,,,,,,,,!@'''                ",
"                 '.@&&#&@@''+                   ",
"                    '''''''                     ",
"                                                ",
"                                                ",
"                                                ",
"                                                ",
"                                                "};
