/* XPM */
static char * icon_64_xpm[] = {
"64 64 17 1",
" 	c None",
".	c #021D35",
"+	c #1C6D5F",
"@	c #506E77",
"#	c #799197",
"$	c #2DE135",
"%	c #9AFEAF",
"&	c #647E86",
"*	c #90F48C",
"=	c #6B8690",
"-	c #78E353",
";	c #1CB040",
">	c #58EB51",
",	c #CCD4CD",
"'	c #0E444B",
")	c #60E89E",
"!	c #C0C1C1",
"                                                                ",
"                                                                ",
"                                                                ",
"                                                                ",
"                                                                ",
"                                                                ",
"                                                                ",
"                                                                ",
"                      ++++'+++++@++++++''                       ",
"                    +++'+&=#@@'++'@&@&@@''.                     ",
"                    ''#!!,,,,,,!#!,,,,,,,!!''                   ",
"                  .=!,,,,,!,!!!!,,,!!,!,!,,,='+                 ",
"                ''#,,,!!!!!!!!!!!!!!!!!!!!,,,='+                ",
"               ''#,,!!!!!!!!!!!!!!!!!!!!!!!!,,#'+               ",
"              +'#,,!!!!!!!!!!!!!!!!!!!!!!!!!!,,!''              ",
"             +@',,,,,,!,,!,,,,,!,,,!,,,!,,,,,,,,#''             ",
"             '';,%,,,,,*,,,,-,,,,,,,,,,*,,,,,%,%%;'.            ",
"    %*>>$$$;''+>%%%%*)$$$$$$$$>->>*>***>>%%%%%%%*$+.;-***>--    ",
"    %,%**$$+.$>>)%*)>$$$;$*>$$>->>>>***>>%%%%%,,%%;.+$***>*-    ",
"    %%%%>$;';>$;;+''+'+;$>**>$>>>>>>>)*>>%%%%%%%%%$'.+$*%*%*    ",
"    %%%**$+';$+'.'......+$>**>>$>>$>>))%)*%%>>)%%%%@..;)%%%%    ",
"    %%%*>;.+>>''.'@;;;+';$>>*>>$$>$$>%%%%%%%)>>%%%%)..;$**%%    ",
"    ,%%%*;';>*$'.')*)))>>>>>>%*>>>>>))%%%%%**%$$%%%%+.')%>>*    ",
"    %%%%>'+$>*>;..;))%%%%>>>>****)>$));!%)%)*%)$)%%%+..;%*$$    ",
"    ,%%%-.;$>*)*+.+)%%%%%%>>>>>>**$$+....;;%*)*$$)%))'..*%>$    ",
"    %%**;.;>>))%*$>)%%%%%*$>$>>)%)>$+'....'+*)*)$)))%#'.;%>>    ",
"    %*->+.;$>>%%%)>>)%))%)$$$$$>*>>$>$;;+'..+;>$$$))%%+.)%)>    ",
"    *>>>'.;$$))%%)$$)%))))>$$$$$)$>$>%%))$+'''+;$$)%%%&.;%*-    ",
"    *>>>'';$$)%**%>$$))>)*>>>$$>)>)>>*%*)));.'''$$)%%%;.=%%*    ",
"    %*>*'';$$>**>*>$>>>>>>>>>$>>$$>>>>%)>)>+....$$%%%%!.;%**    ",
"    %***'';;$>**>->$$->>>>>>>$$$$$>$$>>>>$$+'+;$$$>*%%)'+)%*    ",
"     *-*'.+$$-*---$----->>-*---->>--$>->$$-$)**>>))**)*;.*%     ",
"        .++,,,,,,,,,,,,,,,,,,,,,,,,,,,,,,,,,,,,,,,,,,,,#        ",
"         +@,,,,,,,,!,,,,,!!!!!!,,,,,,!,,,!,!!!!,!,,,,,,@        ",
"         ''!,!!!!!!!!!!,!'.''.@,!!!!!!!!!!!!!!!!!!!!!!,&        ",
"         '@#,!!!!!!!!!!!,,#=@@=,!!!!!!!!!!!!!!!!!!!!!,,@        ",
"         ''#,!!!!!!!!!!!!,,,,,,,!!!!!!!!!!!!!!!!!!!!!!,@        ",
"         '+#,!!!!!!!!!!!!!,!!!!!!!!!!!!!!!!!!!!!!!!!!,!'        ",
"         ''#,!!!!!!!!!!,!!!!!!!!!!!!!!!!!!!!!!!!!!!!!,!'        ",
"          @#,!!!!!!!!,,,,,,,!!!!!!!!!!!!!!!!!!!!!!!!,,'+        ",
"          '',,!!!!!!,,#@&#,,,,!!!!!!!!!!!!!!!!!!!!!!,!''        ",
"          '+#,!!!!!!,#'@@''@#,,,!!!!!!!!!!!!!!!!!!,,!++         ",
"           +@,!!!!!!,!'@+@@+'@=,!!!!!!!!!!!!!!!!!!,!@'          ",
"           @',,!!!!!!!@'##@'@'.!,!!!!!!!!!!!!!!!!,,='+          ",
"           '+#,!!!!!!,!!,,,,!@#,!!!!!!!!!!!!!!!!!,!'+           ",
"            @@!,!!!!!!!!,!,!,,,,!!!!!!!!!!!!!!!,,!'+            ",
"            +'=,,!!!!!!!!!!!!!!!!!!!!!!!!!!!!!!,!'+'            ",
"            '@'!,!!!!!!!!!!!!!!!!!!!!!!!!!!!!!,!'+'             ",
"             ++@,,!!!!!!!!!!!!!!!!!!!!!!!!!!,,,'@'              ",
"              '+@,,!!!!!!!!!!!!!!!!!!!!!!!!,,!@'                ",
"               +'#,,,!!!!!!!!!!!!!!!!!!!!,,,!''                 ",
"                '@#,,,!!!!!!!!!!!!!!!!!!,,!@'                   ",
"                 ''@#,,!,!!!!!!!!!!,!,,,,#''                    ",
"                  +'@#,,,,!,!,!,!,,,,!!&@''                     ",
"                    '''@#!,,,,,,,,!!@'''''                      ",
"                       .'''@@@@@@'''@++                         ",
"                          '''@''''''                            ",
"                                                                ",
"                                                                ",
"                                                                ",
"                                                                ",
"                                                                ",
"                                                                ",
"                                                                "};
