/* XPM */
static char * icon_xpm[] = {
"37 46 325 2",
"  	c None",
". 	c #FFFFFF",
"+ 	c #F5EFEF",
"@ 	c #E6D7D7",
"# 	c #D3B7B7",
"$ 	c #CEAFAF",
"% 	c #CBA9A9",
"& 	c #CDADAD",
"* 	c #CCABAB",
"= 	c #AD7878",
"- 	c #CAA8A8",
"; 	c #D7BDBD",
"> 	c #C9A6A6",
", 	c #C39C9C",
"' 	c #D6BCBC",
") 	c #CFAFAF",
"! 	c #D1B3B3",
"~ 	c #D4B9B9",
"{ 	c #C6A1A1",
"] 	c #C5A0A0",
"^ 	c #CFB0B0",
"/ 	c #DAC2C2",
"( 	c #DDC7C7",
"_ 	c #E8DADA",
": 	c #F1E8E8",
"< 	c #B78989",
"[ 	c #B17E7E",
"} 	c #BF9595",
"| 	c #C29A9A",
"1 	c #E5D4D4",
"2 	c #F9F5F5",
"3 	c #FEFDFD",
"4 	c #FBFBFB",
"5 	c #7B7B7B",
"6 	c #FCF9F9",
"7 	c #DBC4C4",
"8 	c #B07D7D",
"9 	c #B68787",
"0 	c #C7A3A3",
"a 	c #F3EBEB",
"b 	c #E3D1D1",
"c 	c #DFCACA",
"d 	c #D4B8B8",
"e 	c #C9A5A5",
"f 	c #D0B1B1",
"g 	c #C8A4A4",
"h 	c #D0B2B2",
"i 	c #C9A7A7",
"j 	c #A36868",
"k 	c #D6BBBB",
"l 	c #DBC7C7",
"m 	c #4B3D3D",
"n 	c #F5EEEE",
"o 	c #FDFCFC",
"p 	c #FEFEFE",
"q 	c #EFE5E5",
"r 	c #CAA7A7",
"s 	c #C7A2A2",
"t 	c #F7F2F2",
"u 	c #D2B5B5",
"v 	c #C29B9B",
"w 	c #F4EDED",
"x 	c #C6BEBA",
"y 	c #A1938D",
"z 	c #D8C0C0",
"A 	c #CBAAAA",
"B 	c #CEAEAE",
"C 	c #CDACAC",
"D 	c #D5BABA",
"E 	c #E8D9D9",
"F 	c #DEC9C9",
"G 	c #CAA9A9",
"H 	c #F1F3F1",
"I 	c #3D4D3D",
"J 	c #E4E4E4",
"K 	c #F2E9E9",
"L 	c #F5FCF5",
"M 	c #6BC56B",
"N 	c #297129",
"O 	c #D3B6B6",
"P 	c #6FAC6F",
"Q 	c #369536",
"R 	c #297029",
"S 	c #A8E0A8",
"T 	c #3DA33D",
"U 	c #338D33",
"V 	c #CCD4CC",
"W 	c #509850",
"X 	c #D7DBD7",
"Y 	c #D2D3D2",
"Z 	c #0E250E",
"` 	c #758475",
" .	c #E9EFE9",
"..	c #EEE2E2",
"+.	c #F9F9F9",
"@.	c #003100",
"#.	c #003400",
"$.	c #133113",
"%.	c #B2BFB2",
"&.	c #CFB1B1",
"*.	c #ECE0E0",
"=.	c #E2CFCF",
"-.	c #003C00",
";.	c #001F00",
">.	c #052505",
",.	c #A9BDA9",
"'.	c #C6A0A0",
").	c #CDAEAE",
"!.	c #F6F0F0",
"~.	c #C7A4A4",
"{.	c #002F00",
"].	c #002500",
"^.	c #002300",
"/.	c #002700",
"(.	c #1E4D1E",
"_.	c #C6A2A2",
":.	c #CCACAC",
"<.	c #002100",
"[.	c #002800",
"}.	c #124F12",
"|.	c #FAF6F6",
"1.	c #D5B9B9",
"2.	c #001900",
"3.	c #001800",
"4.	c #001E00",
"5.	c #6D8B6D",
"6.	c #C39D9D",
"7.	c #F0E6E6",
"8.	c #E0CCCC",
"9.	c #D9D9D9",
"0.	c #001100",
"a.	c #000F00",
"b.	c #011501",
"c.	c #537053",
"d.	c #FAFCFA",
"e.	c #E9DADA",
"f.	c #DDDDDD",
"g.	c #323832",
"h.	c #244324",
"i.	c #B1C6B1",
"j.	c #F8F3F3",
"k.	c #CCAAAA",
"l.	c #D1B4B4",
"m.	c #FAF7F7",
"n.	c #AEC3AE",
"o.	c #728872",
"p.	c #608160",
"q.	c #566F49",
"r.	c #536750",
"s.	c #103E10",
"t.	c #175317",
"u.	c #85A185",
"v.	c #F6FAF6",
"w.	c #F7F1F1",
"x.	c #D9C0C0",
"y.	c #BCCCBC",
"z.	c #9BB69B",
"A.	c #ADC5AD",
"B.	c #91947D",
"C.	c #869680",
"D.	c #4A934A",
"E.	c #379837",
"F.	c #0F530F",
"G.	c #548954",
"H.	c #A8B7A8",
"I.	c #FBFDFB",
"J.	c #EEE3E3",
"K.	c #F7F7F7",
"L.	c #73AC73",
"M.	c #003A00",
"N.	c #004900",
"O.	c #003000",
"P.	c #002B00",
"Q.	c #265726",
"R.	c #A0BBA0",
"S.	c #E2D0D0",
"T.	c #E4D2D2",
"U.	c #E4E6E4",
"V.	c #004400",
"W.	c #004E00",
"X.	c #002D00",
"Y.	c #4F864F",
"Z.	c #F0F6F0",
"`.	c #F0E7E7",
" +	c #E4D3D3",
".+	c #F4F4F4",
"++	c #004100",
"@+	c #003500",
"#+	c #003E00",
"$+	c #003900",
"%+	c #003200",
"&+	c #386338",
"*+	c #F5F8F5",
"=+	c #C8A5A5",
"-+	c #E6D5D5",
";+	c #004700",
">+	c #003B00",
",+	c #003600",
"'+	c #004200",
")+	c #004600",
"!+	c #8DBA8D",
"~+	c #FCFBFB",
"{+	c #003700",
"]+	c #1A531A",
"^+	c #C7A5A5",
"/+	c #FBF8F8",
"(+	c #EBF3EB",
"_+	c #B4BEA8",
":+	c #A6BDA0",
"<+	c #C4DBC4",
"[+	c #CCDECC",
"}+	c #002C00",
"|+	c #0F620F",
"1+	c #C5A3A2",
"2+	c #FCFAFA",
"3+	c #F4F8F4",
"4+	c #A0C5A0",
"5+	c #428142",
"6+	c #0F5B0F",
"7+	c #005300",
"8+	c #004F00",
"9+	c #005000",
"0+	c #005200",
"a+	c #003800",
"b+	c #308130",
"c+	c #EFE4E4",
"d+	c #D9C1C1",
"e+	c #B4D1B4",
"f+	c #0F5C0F",
"g+	c #005400",
"h+	c #005100",
"i+	c #004000",
"j+	c #004300",
"k+	c #81A181",
"l+	c #EBDEDE",
"m+	c #ADC7AD",
"n+	c #065706",
"o+	c #004C00",
"p+	c #004500",
"q+	c #002A00",
"r+	c #002E00",
"s+	c #076007",
"t+	c #CFDACF",
"u+	c #6CA66C",
"v+	c #005600",
"w+	c #002600",
"x+	c #003300",
"y+	c #003F00",
"z+	c #115A11",
"A+	c #A38F80",
"B+	c #D2B4B4",
"C+	c #93B893",
"D+	c #005500",
"E+	c #005A00",
"F+	c #005900",
"G+	c #004D00",
"H+	c #004800",
"I+	c #283B07",
"J+	c #8A8E70",
"K+	c #F6F1F1",
"L+	c #83A87C",
"M+	c #035A02",
"N+	c #004A00",
"O+	c #004B00",
"P+	c #1D2500",
"Q+	c #064406",
"R+	c #C8D1C2",
"S+	c #B98C8C",
"T+	c #E9F1E9",
"U+	c #A5C9A5",
"V+	c #5C9A5C",
"W+	c #256E25",
"X+	c #2A632A",
"Y+	c #2A6A2A",
"Z+	c #2C682C",
"`+	c #5A935A",
" @	c #273700",
".@	c #569856",
"+@	c #FDFBFB",
"@@	c #C19999",
"#@	c #005700",
"$@	c #1A2F00",
"%@	c #056205",
"&@	c #DCEADC",
"*@	c #DDC8C8",
"=@	c #E1CECE",
"-@	c #FCFCFC",
";@	c #4C844C",
">@	c #064606",
",@	c #242A00",
"'@	c #6F956F",
")@	c #C59F9F",
"!@	c #EDE2E2",
"~@	c #DCC6C6",
"{@	c #ECF4EC",
"]@	c #9DBD9D",
"^@	c #3F783F",
"/@	c #044C04",
"(@	c #005B00",
"_@	c #203400",
":@	c #005C00",
"<@	c #5F9E5F",
"[@	c #975454",
"}@	c #E6EEE6",
"|@	c #8CAC8C",
"1@	c #378337",
"2@	c #044700",
"3@	c #1B3100",
"4@	c #006300",
"5@	c #6DA66D",
"6@	c #DFECDF",
"7@	c #819877",
"8@	c #38411C",
"9@	c #006100",
"0@	c #607B4A",
"a@	c #E6D6D6",
"b@	c #CFDECF",
"c@	c #78A978",
"d@	c #7A7C5B",
"e@	c #DBC3C3",
"f@	c #EBDDDD",
"g@	c #FFFEFE",
"h@	c #DDC6C6",
"i@	c #FBF9F9",
"j@	c #A97171",
"            + @ # $ % & % * = - ; > , ' ) , ! ~ , % ; { ] ; ^ > / ( ( _ : ",
"& < [ } | - # 1 2 3         ,     4 5                       6 2 2 7 8 9 0 ",
"- a b c $ d e f g h - ! i ^ j f k l m n o p                 q r s c   t u ",
"s                           v   w x y z A f A & % B C $ { g D o       E F ",
"G                           {   H I J                   v             c K ",
"u                           ' L M N J                   D             O 2 ",
"0                           ' P Q R J                   i             0   ",
"-                           ' S T U J                   A             ^   ",
"u                           k   V W X                   h             &   ",
"^ t                         v     Y Z `  .              v             >   ",
"F ..                        v     +.@.#.$.%.            '             &.  ",
"*.=.                        v     +.-.@.;.>.,.          '.            ).  ",
"!.!                         ~.    +.{.].^./.(.+.        C             _.  ",
"  :.                        '     +.^.^.<.[.}.          ^           |.1.  ",
"  ^                         '     +.2.3.4.<.5.          6.          7.8.  ",
"  g                         '     9.0.a.b.c.d.          '           ( e.  ",
"  *                         k 3 f.g.<.h.i.            j.k.          l.m.  ",
"  ^                   n.o.p.q.r.s.t.u.v.              w.x.          u 3   ",
"  g                   y.z.A.B.C.D.E.@.F.G.H.I.        J.c           >     ",
"  *                         f : K.L.M.N.O.P.Q.R.4     S.T.          *     ",
"  !                         ; :   U.-.V.W.-.X./.Y.Z.  S.a           ^     ",
"  D `.                       +:   .+V.++@+#+$+#.%+&+*+^ a           =+    ",
"  -+1                        +:   +.;+-.>+,+%+@+'+)+!+1.~+          >     ",
"  n 7                        +:   +.@.,+#+{+-.M.%+%+]+^+            u     ",
"  /+%                   I.(+_+:+<+[+}+#.@+$+;+;+V.V.|+1+          2+A     ",
"    k.            3+4+5+6+7+7+8+9+0+P.@.a+#+#.%+O.{+b+#           c+d+    ",
"    l.          e+f+7+0+g+W.h+8+9+M.{.@+%+%+i+j+V.j+k+v           b l+    ",
"    _.        m+n+g+8+h+)+o+'+p+%+q+M.@.a+-.r+,+i+s+t+#           D +     ",
"    A         u+v+0+8+9+h+p+w+X.@.r+x+$+$+M.y+#+V.a+z+A+          >       ",
"    B+        C+D+E+F+D+G+0+G+O.#+X.>+i+%+i+W.0+V.H+N.I+J+! K+    ^       ",
"    _.          L+M+9+g+E+W.#+N+j+X.-.O+8+G+N+o+p+>+a+P+Q+R+l.r > S+      ",
"    ^ 3       =.=+T+U+V+W+X+X+Y+Z+`+0+7+H+y+#.,+y+N+G+ @)+.@    +@@@      ",
"    u 2+    ~ #                   +.)+{+p+N+N.#@g+N+N+$@o+%@&@  l.7.      ",
"    *@E   > =@                    -@;@>@>+$+y+p+a+-.>+,@'+#+'@  )@        ",
"    !@~@, *.                          {@]@^@/@(@7+N+N+_@:@N+<@' l+        ",
"    2 [@K+                                  }@|@1@o+2@3@4@o+5@0           ",
"      !@0 r +                                     6@7@8@9@8+0@T.          ",
"          /+^ ] E                                   q a@b@c@d@            ",
"                ~@] D 3                             ~@a@  T.(             ",
"                    q _.i K+                        e@a   0               ",
"                        /+B { E                     l./+f@'               ",
"                            g@h@] ~ 3               > i@)@                ",
"                                  7._.r t           ' 7.l.                ",
"                                      m.& { a@      v > o                 ",
"                                          p F ] k o =+:.                  ",
"                                                7.{ j@6                   "};
