/* XPM */
static char *noname[] = {
/* width height ncolors chars_per_pixel */
"32 32 342 2",
/* colors */
"   c #000000",
" . c #7AEE98",
" X c #5BEB80",
" o c #B6F6C6",
" O c #1EE351",
" + c #79EE97",
" @ c #B5F6C5",
" # c #1ADF4D",
" $ c #1ADD4D",
" % c #14AA3A",
" & c #13A439",
" * c #65DA83",
" = c #0A5D20",
" - c #718075",
" ; c #91F1AB",
" : c #CDF9D9",
" > c #EBFCF0",
" , c #EAFCEF",
" < c #8EF1A8",
" 1 c #E9FCEE",
" 2 c #8DF1A7",
" 3 c #E8FCED",
" 4 c #ABF4BE",
" 5 c #31E660",
" 6 c #8CF1A6",
" 7 c #C9F7D5",
" 8 c #AAF4BD",
" 9 c #E6FCEB",
" 0 c #C8F7D4",
" q c #4EE976",
" w c #C7F7D3",
" e c #6AEC8B",
" r c #15B43E",
" t c #15B23E",
" y c #70BD84",
" u c #0C6D25",
" i c #0C6B25",
" p c #1D582C",
" a c #17C243",
" s c #17C043",
" d c #96A399",
" f c #0E7B2A",
" g c #0E792A",
" h c #0D7729",
" j c #063412",
" k c #19D048",
" l c #82EF9F",
" z c #63EC87",
" x c #19CE48",
" c c #81EF9E",
" v c #DCFAE4",
" b c #62EC86",
" n c #80EF9D",
" m c #DBFAE3",
" M c #61EC85",
" N c #10892F",
" B c #23E455",
" V c #7EEF9B",
" C c #D9FAE1",
" Z c #9CF2B2",
" A c #D8FAE0",
" S c #40E76B",
" D c #9BF2B1",
" F c #074016",
" G c #859188",
" H c #129734",
" J c #129534",
" K c #094E1B",
" L c #010903",
" P c #14A539",
" I c #EFFDF3",
" U c #A4E1B3",
" Y c #38E766",
" T c #C2E4CA",
" R c #B1F5C3",
" E c #74ED94",
" W c #129F37",
" Q c #55EA7C",
" ! c #CEF8D9",
" ~ c #72ED92",
" ^ c #53EA7A",
" / c #90F0A9",
" ( c #71ED91",
" ) c #CCF8D7",
" _ c #70ED90",
" ` c #CBF8D6",
" ' c #A7F1B9",
" ] c #0D6C25",
" [ c #14AD3C",
" { c #04250C",
" } c #03210B",
" | c #16BD41",
".  c #16BB41",
".. c #063311",
".X c #E4FBEB",
".o c #E3FBEA",
".O c #052F10",
".+ c #E1FBE8",
".@ c #DFFBE6",
".# c #C1F6CF",
".$ c #47E871",
".% c #A2F3B7",
".& c #28E559",
".* c #83F09F",
".= c #BFF6CD",
".- c #45E86F",
".; c #BEF6CC",
".: c #62EB85",
".> c #18CB46",
"., c #565F59",
".< c #18C946",
".1 c #5FEB82",
".2 c #0F822D",
".3 c #1AD94B",
".4 c #1AD74B",
".5 c #119232",
".6 c #119032",
".7 c #CCE7D3",
".8 c #50D773",
".9 c #424F45",
".0 c #D4F9DE",
".q c #5AEB80",
".w c #B5F6C6",
".e c #D3F9DD",
".r c #77EE96",
".t c #D2F9DC",
".y c #94F1AC",
".u c #EFFCF2",
".i c #13A037",
".p c #B2F4C3",
".a c #EEFCF1",
".s c #139E37",
".d c #37E664",
".f c #0A571E",
".g c #09531D",
".h c #15AE3C",
".j c #0C6523",
".k c #E7FCED",
".l c #AAF4BE",
".z c #E6FCEC",
".x c #15B63F",
".c c #4CE975",
".v c #0E7328",
".b c #6AEC8C",
".n c #A6F4BA",
".m c #69EC8B",
".M c #C4F7D1",
".N c #4AE973",
".B c #C3F7D0",
".V c #67EC89",
".C c #84EF9F",
".Z c #83EF9E",
".A c #528B61",
".S c #A0F0B4",
".D c #195829",
".F c #17C444",
".G c #0C0D0C",
".H c #0D792A",
".J c #19D449",
".K c #19D249",
".L c #284B31",
".P c #108B30",
".I c #9DF2B4",
".U c #D9FAE2",
".Y c #D8FAE1",
".T c #21E454",
".R c #7CEF9A",
".E c #D7FAE0",
".W c #9AF2B1",
".Q c #3EE76A",
".! c #99F2B0",
".~ c #1FE452",
".^ c #3CE768",
"./ c #B5F5C5",
".( c #59EA7E",
".) c #1BE24E",
"._ c #1BE04E",
".` c None",
".' c #129935",
".] c #14A73A",
".[ c #69DB87",
".{ c #0B6021",
".} c #0B5E21",
".| c #47D66C",
"X  c #357947",
"X. c #337945",
"XX c #6F7F73",
"Xo c #CBF8D7",
"XO c #51EA79",
"X+ c #ACF5BF",
"X@ c #E9FBEE",
"X# c #CAF8D6",
"X$ c #6EED8F",
"X% c #C9F8D5",
"X& c #E7FBEC",
"X* c #C8F8D4",
"X= c #30E55F",
"X- c #16B73F",
"X; c #2EE55D",
"X: c #A5F1B8",
"X> c #0D6E26",
"X, c #188434",
"X< c #1D943C",
"X1 c #0F7C2B",
"X2 c #0E7A2A",
"X3 c #0D7629",
"X4 c #DEFBE6",
"X5 c #A0F3B6",
"X6 c #43E86E",
"X7 c #18CD47",
"X8 c #9EF3B4",
"X9 c #BBF6CA",
"X0 c #41E86C",
"Xq c #D9F9E1",
"Xw c #5EEB82",
"Xe c #7CEE99",
"Xr c #0F842E",
"Xt c #99F1AF",
"Xy c #073F16",
"Xu c #869289",
"Xi c #1ADB4C",
"Xp c #050C07",
"Xa c #010A03",
"Xs c #8BDFA1",
"Xd c #A8E2B7",
"Xf c #C3E5CB",
"Xg c #13A238",
"Xh c #EEFCF2",
"Xj c #0B5D20",
"Xk c #EDFCF1",
"Xl c #73EE93",
"Xz c #91F1AA",
"Xx c #ECFCF0",
"Xc c #AFF4C1",
"Xv c #35E663",
"Xb c #90F1A9",
"Xn c #EAFCEE",
"Xm c #33E661",
"XM c #E9FCED",
"XN c #50E977",
"XB c #ABF4BD",
"XV c #ABF2BD",
"XC c #93C09F",
"XZ c #74BD87",
"XA c #15B03D",
"XS c #0C6B24",
"XD c #0C6924",
"XF c #0B6923",
"XG c #0C6724",
"XH c #17BE42",
"XJ c #0E7729",
"XK c #0E7529",
"XL c #A5F4BA",
"XP c #053010",
"XI c #C3F7D1",
"XU c #A4F4B9",
"XY c #E1FAE8",
"XT c #C2F7D0",
"XR c #C1F7CF",
"XE c #65EC88",
"XW c #DEFAE5",
"XQ c #64EC87",
"X! c #27E458",
"X~ c #DDFAE4",
"X^ c #9FF2B4",
"X/ c #25E456",
"X( c #4E8B5E",
"X) c #10852E",
"X_ c #17C645",
"X` c #0F832D",
"X' c #073E15",
"X] c #19D64A",
"X[ c #108F31",
"X{ c #084819",
"X} c #000501",
"X| c #7AEF99",
"o  c #414E44",
"o. c #98F2B0",
"oX c #3AE767",
"oo c #95F2AD",
"oO c #D2F8DC",
"o+ c #B3F5C4",
"o@ c #94F2AC",
"o# c #57EA7D",
"o$ c #B2F5C3",
"o% c #75ED94",
"o& c #74ED93",
"o* c #B0F5C1",
"o= c #129D36",
"o- c #129B36",
"o; c #0A581E",
"o: c #23863D",
"o> c #95C1A0",
"o, c #09541D",
"o< c #14AB3B",
"o1 c #14A93B",
"o2 c #0B6222",
"o3 c #16B940",
"o4 c #8BF0A6",
"o5 c #C7F8D4",
"o6 c #16B740",
"o7 c #8AF0A5",
"o8 c #E5FBEB",
"o9 c #89F0A4",
"o0 c #E4FBEA",
"oq c #6AED8C",
"ow c #A7F3BB",
"oe c #88F0A3",
"or c #E3FBE9",
"ot c #0D7227",
"oy c #2CE55C",
"ou c #87F0A2",
"oi c #E2FBE8",
"op c #0D7027",
"oa c #49E872",
"os c #A4F3B8",
"od c #2AE55A",
"of c #85F0A0",
"og c #728F7A",
"oh c #718F79",
"oj c #565F58",
"ok c #18C745",
"ol c #0F802C",
"oz c #0F7E2C",
"ox c #0E7E2B",
"oc c #063913",
"ov c #118E31",
"ob c #CEE7D4",
"on c #2A4C33",
"om c #91DFA5",
"oM c #118C31",
"oN c #BBF6CB",
"oB c #9CF3B3",
"oV c #B9F6C9",
"oC c #7CEE9A",
"oZ c #D7F9E0",
"oA c #B8F6C8",
"oS c #7BEE99",
"oD c #D6F9DF",
"oF c #5CEB81",
"oG c #B7F6C7",
"oH c None",
/* pixels */
".`.`.`.`.`.`.`.`.`.`.`.`                .`.`.`.`.`.`.`.`.`.`.`.`",
".`.`.`.`.`.`.`.`.`    .9ogo>XdXVX:omXZ.Aon    .`.`.`.`.`.`.`.`.`",
".`.`.`.`.`.`.`  .G -Xf `XIX9o*XLoBoo 6.*X|.[X Xp  .`.`.`.`.`.`.`",
".`.`.`.`.`.`  .,ob m.0 ).B o.lX8oo 6.*.R ~XE.q.|.D  .`.`.`.`.`.`",
".`.`.`.`.`  Xu.XorX4.U.tXIoG.n.W 2.*.R ~.VoF qX0.dX,  .`.`.`.`.`",
".`.`.`.`   d.k 3.z.o.@.EX#oAXUo@ouX| ~.mXwXO.$oXoy.TX[  .`.`.`.`",
".`.`.`   G.kX@XnXx 1o8 v :oVos < cXloq M Q.cX0XvX!.)X]X3  .`.`.`",
".`.`  ojo0X& ,Xk.uXk 3XW :X9X8o4oCoq z.q ^oa.QXmX/ #.KX_X{  .`.`",
".`.`.G.7XYo8 >Xh IXkXMX~Xo @o.of ( zXwo# qX6.^ 5X/ # k.F % L.`.`",
".`  XXXqXWoi 1Xx.aXnoroDXR 8 <oS eXwo#XNoa SoXX; B # x s ro;  .`",
".`   ToOoZX~or 9X&.+ CX%o$ D Vo& b.q ^ q.-.QXvoy.T $ k s to-  .`",
".`o  0 7 !.e A m.Y.to5.wX8oe EXEoF ^ q.$ S.dX=.&.~XiX7 | [.i.O.`",
"  oh.=.;.#.MX* wXToNX+ Zo9o&.VoFo# qoaX6oXXvoyX/.).4.<o6 P.'.g  ",
"  XC./.p Ro$o+Xc 4X5Xz.Zo&.V X QXNoaX6.Q.dX;X!.~Xi x s.h.i.6XS  ",
"   UXBow.%X^.IXt ;oe .X$.: X Q qoaX6.Q.dX;.&.~._.J.<o3.] H.P.H  ",
"   '.% D.y /o9.CoS (.b.1.( ^ q.$X6.Q YX=.&.T.).4X7 sXA.s.6X)X2  ",
"  .S.!Xbo7 lXeo%X$XQXwo# ^.c.$X6.^.dX=.&.~.).4 x.Fo6.] J Noz h  ",
"  XsXbo9 n + ~oq zXwo# ^.N.$X0oXXvX=.&.T._.3 kX_o3o<o=ov.2 gXF  ",
"   you V + ~.m zoFo#XO.N.- S YXvX;.&.T.)Xi kX_. .h.i.5Xr fot.f  ",
"  X( V.r ~.m MoFo#XO.N.- S YXmoyX!.~.).3 kok |XA & J NX1.vopXy  ",
".`.L.r _.m MoFo#XNoa.- S YXvoyX!.~._Xi.Kok | t P H.PozXKotX> }.`",
".`   *.V M.( ^ q.$.- S.dXmX;X!.T.).3.K.<XH t.]o-ov.2XJotX>o2  .`",
".`  X.Xwo#XO q.$ S.^.d 5oyX!.~.)Xi.K.< s.x.]o=.6XrXJotX> i j  .`",
".`.`Xp.8XN.cX6 S YXvX;.&X/ O._Xi.K.> s ro1o=.6Xr g.vX> i.}X}.`.`",
".`.`   p.$ SoXXvX=od B.~.) $.4.Kok s ro1o=ovXrXJ.vX>XDXG {  .`.`",
".`.`.`  o: Y 5oyX/.~._ $.4 kX7X_XH r.]o-ov.2XJ.vX>XD.joc  .`.`.`",
".`.`.`.`  X<X!.~._XiX] k.<.FXHo3XA Po-ov.2XJot ] iXG F  .`.`.`.`",
".`.`.`.`.`  X`XiX]X7ok a |.x to<Xgo-ov.2XJot ]XD.joc  .`.`.`.`.`",
".`.`.`.`.`.`   KX- so3 t [ P.io- JoMolXJot ]XDXj {  .`.`.`.`.`.`",
".`.`.`.`.`.`.`  Xa = W &o= H.5ovX)ozXKot ].{..X}  .`.`.`.`.`.`.`",
".`.`.`.`.`.`.`.`.`    XPo, uX2ox hXF.fX' }    .`.`.`.`.`.`.`.`.`",
".`.`.`.`.`.`.`.`.`.`.`.`                .`.`.`.`.`.`.`.`.`.`.`.`"
};
