/* XPM */
static char * icewm_xpm[] = {
"55 22 405 2",
"  	c None",
". 	c #E4E4E4",
"+ 	c #EBEBEB",
"@ 	c #D5D5D5",
"# 	c #D6D6D6",
"$ 	c #CBCBCB",
"% 	c #979797",
"& 	c #6A6A6A",
"* 	c #E4E3E4",
"= 	c #C4C4C4",
"- 	c #B3B4B3",
"; 	c #717171",
"> 	c #696969",
", 	c #B4B5B4",
"' 	c #727272",
") 	c #A6A6A6",
"! 	c #9A9A9A",
"~ 	c #C5C5C5",
"{ 	c #B4B4B4",
"] 	c #727172",
"^ 	c #A6A7A6",
"/ 	c #737373",
"( 	c #575757",
"_ 	c #010101",
": 	c #4A4A4A",
"< 	c #9B9B9B",
"[ 	c #C3C3C3",
"} 	c #B5B5B4",
"| 	c #6B6B6B",
"1 	c #A4A4A4",
"2 	c #9F9F9F",
"3 	c #A7A7A7",
"4 	c #585858",
"5 	c #010201",
"6 	c #7E080F",
"7 	c #970811",
"8 	c #1B8616",
"9 	c #1C9E15",
"0 	c #4C4C4D",
"a 	c #999999",
"b 	c #ADADAD",
"c 	c #757675",
"d 	c #757575",
"e 	c #747575",
"f 	c #989898",
"g 	c #B4B5B5",
"h 	c #929292",
"i 	c #898A89",
"j 	c #A0A0A0",
"k 	c #767676",
"l 	c #595959",
"m 	c #7E0810",
"n 	c #E10515",
"o 	c #BC0612",
"p 	c #18A414",
"q 	c #18EB0A",
"r 	c #1F9F18",
"s 	c #010204",
"t 	c #808080",
"u 	c #C2C2C2",
"v 	c #ACACAC",
"w 	c #5E5F5F",
"x 	c #686868",
"y 	c #A2A3A2",
"z 	c #858584",
"A 	c #494949",
"B 	c #AEAEAF",
"C 	c #777676",
"D 	c #B1B2B1",
"E 	c #C2C3C2",
"F 	c #6A6B6A",
"G 	c #C4C4C3",
"H 	c #B4B6B4",
"I 	c #B2B4B2",
"J 	c #939292",
"K 	c #525253",
"L 	c #A1060F",
"M 	c #FF001B",
"N 	c #BB0516",
"O 	c #020201",
"P 	c #19A412",
"Q 	c #12FE02",
"R 	c #1EC313",
"S 	c #010203",
"T 	c #818181",
"U 	c #9F9E9E",
"V 	c #7D7D7E",
"W 	c #B9B9B9",
"X 	c #B1B1B1",
"Y 	c #C5C4C4",
"Z 	c #A1A2A1",
"` 	c #787878",
" .	c #C2C3C3",
"..	c #6F6F6F",
"+.	c #DA9FA0",
"@.	c #DC9B9D",
"#.	c #B6B6B5",
"$.	c #A4A5A4",
"%.	c #A3A4A4",
"&.	c #A3A3A4",
"*.	c #7C7D7D",
"=.	c #A10711",
"-.	c #D0061A",
";.	c #640611",
">.	c #175D12",
",.	c #20C214",
"'.	c #1FC314",
").	c #7F7F7F",
"!.	c #9D9E9E",
"~.	c #7B7B7B",
"{.	c #A1A1A1",
"].	c #484848",
"^.	c #C3C3C2",
"/.	c #AFAFAF",
"(.	c #969696",
"_.	c #B0B0B0",
":.	c #797979",
"<.	c #949494",
"[.	c #424242",
"}.	c #B5B5B5",
"|.	c #E68B8D",
"1.	c #E88486",
"2.	c #D8A2A2",
"3.	c #D99D9D",
"4.	c #D7A2A1",
"5.	c #EB7177",
"6.	c #AD575A",
"7.	c #58050D",
"8.	c #66070D",
"9.	c #020202",
"0.	c #020301",
"a.	c #1C7216",
"b.	c #B8B8B8",
"c.	c #818281",
"d.	c #4B4B4B",
"e.	c #7A7A7A",
"f.	c #626262",
"g.	c #A1A1A2",
"h.	c #868786",
"i.	c #464646",
"j.	c #959495",
"k.	c #5C5C5C",
"l.	c #A7A6A7",
"m.	c #5B5B5B",
"n.	c #ACADAD",
"o.	c #D0B0B1",
"p.	c #D1AEAD",
"q.	c #E38E8C",
"r.	c #F54D51",
"s.	c #F45354",
"t.	c #FE0117",
"u.	c #B80510",
"v.	c #010102",
"w.	c #050776",
"x.	c #06088B",
"y.	c #020203",
"z.	c #887E1C",
"A.	c #A29620",
"B.	c #020102",
"C.	c #808081",
"D.	c #A2A2A2",
"E.	c #828281",
"F.	c #4C4C4C",
"G.	c #787777",
"H.	c #C3C3C4",
"I.	c #7C7B7B",
"J.	c #666666",
"K.	c #717271",
"L.	c #A7A7A6",
"M.	c #707070",
"N.	c #A6A6D9",
"O.	c #A2A2DA",
"P.	c #D3B0B0",
"Q.	c #DE999D",
"R.	c #DC9B9B",
"S.	c #DD9A98",
"T.	c #A67574",
"U.	c #020101",
"V.	c #030977",
"W.	c #040FD9",
"X.	c #040DB9",
"Y.	c #A79D17",
"Z.	c #E9DB15",
"`.	c #9E9623",
" +	c #030202",
".+	c #818080",
"++	c #C6C4C5",
"@+	c #C5C4C5",
"#+	c #A09F9F",
"$+	c #7C7B7C",
"%+	c #C4C3C3",
"&+	c #787778",
"*+	c #676867",
"=+	c #605E5E",
"-+	c #858484",
";+	c #747474",
">+	c #A6A4A5",
",+	c #C3C1C1",
"'+	c #A6A5A6",
")+	c #C5C3C4",
"!+	c #B5B4B4",
"~+	c #9191E3",
"{+	c #8C8BE4",
"]+	c #A6A6D6",
"^+	c #A3A2D9",
"/+	c #A6A8D5",
"(+	c #7C7DE9",
"_+	c #5E5FA7",
":+	c #020B9D",
"<+	c #030FFC",
"[+	c #050DB7",
"}+	c #A79D16",
"|+	c #FBEE02",
"1+	c #C5BA1C",
"2+	c #828081",
"3+	c #C4C3C4",
"4+	c #AFADAF",
"5+	c #807F80",
"6+	c #9E9D9D",
"7+	c #C6C3C4",
"8+	c #A09E9E",
"9+	c #7B7A7A",
"0+	c #C4C2C2",
"a+	c #A1A0A0",
"b+	c #797878",
"c+	c #A4A2A4",
"d+	c #030201",
"e+	c #757373",
"f+	c #A6A3A3",
"g+	c #737272",
"h+	c #A7A5A6",
"i+	c #706F71",
"j+	c #C5C3C3",
"k+	c #B6B4B5",
"l+	c #6B6B6A",
"m+	c #B2B1D3",
"n+	c #B0B0D4",
"o+	c #9191DE",
"p+	c #5659F1",
"q+	c #5E5FEE",
"r+	c #0410FD",
"s+	c #020BB4",
"t+	c #0310D0",
"u+	c #03076B",
"v+	c #010304",
"w+	c #696518",
"x+	c #CBC217",
"y+	c #C5BC19",
"z+	c #020103",
"A+	c #818081",
"B+	c #B8B6B7",
"C+	c #7F7E7E",
"D+	c #515050",
"E+	c #676666",
"F+	c #626161",
"G+	c #ABA9A9",
"H+	c #C3C1C2",
"I+	c #B8B6B6",
"J+	c #4D4C4C",
"K+	c #9C9B9C",
"L+	c #828181",
"M+	c #4C4B4A",
"N+	c #6B6A6A",
"O+	c #757474",
"P+	c #A5A3A3",
"Q+	c #C4C1C2",
"R+	c #BAB7B8",
"S+	c #474747",
"T+	c #989697",
"U+	c #C4C2C3",
"V+	c #B7B4B5",
"W+	c #6B6A6B",
"X+	c #A8A8A8",
"Y+	c #A5A5A5",
"Z+	c #B0B2D2",
"`+	c #999BDE",
" @	c #999BDC",
".@	c #7577A1",
"+@	c #02075D",
"@@	c #03096C",
"#@	c #010202",
"$@	c #6A651E",
"%@	c #7C7C21",
"&@	c #B8B5B7",
"*@	c #9D9C9C",
"=@	c #9D9B9C",
"-@	c #9E9C9C",
";@	c #ADABAC",
">@	c #9D9A9C",
",@	c #ABAAAA",
"'@	c #9C9B9B",
")@	c #AAA9A9",
"!@	c #B9B7B7",
"~@	c #BAB8B9",
"{@	c #AAA8A8",
"]@	c #B6B4B4",
"^@	c #6C696A",
"/@	c #8B8B8B",
"(@	c #A9ABAC",
"_@	c #A5A6A5",
":@	c #ACAAA9",
"<@	c #868382",
"[@	c #666362",
"}@	c #666768",
"|@	c #9A9A9D",
"1@	c #9B9B9E",
"2@	c #9A9A9E",
"3@	c #78797B",
"4@	c #010105",
"5@	c #010103",
"6@	c #817F81",
"7@	c #C5C3C5",
"8@	c #C6C4C6",
"9@	c #C6C3C6",
"0@	c #C5C3C6",
"a@	c #C5C2C5",
"b@	c #C5C2C6",
"c@	c #C5C2C4",
"d@	c #C4C3C6",
"e@	c #C6C2C5",
"f@	c #C4C2C5",
"g@	c #C4C2C4",
"h@	c #C4C3C5",
"i@	c #737173",
"j@	c #6C6A6B",
"k@	c #949495",
"l@	c #656463",
"m@	c #686667",
"n@	c #ADACAE",
"o@	c #C4C4C6",
"p@	c #B4B4B7",
"q@	c #98989B",
"r@	c #78787A",
"s@	c #C6C3C7",
"t@	c #C6C4C8",
"u@	c #C5C2C7",
"v@	c #C4C2C6",
"w@	c #C6C2C7",
"x@	c #C6C2C6",
"y@	c #B6B3B9",
"z@	c #727173",
"A@	c #6B6A6C",
"B@	c #989695",
"C@	c #C4C3C7",
"D@	c #B3B3B5",
"E@	c #ABA8AB",
"F@	c #B5B2B7",
"G@	c #727072",
"H@	c #6A6A6B",
"I@	c #C5C3C2",
"J@	c #C4C2C7",
"K@	c #C5C3C7",
"L@	c #B7B3B7",
"M@	c #6C6A6E",
"N@	c #D8D8D8",
"O@	c #A7A4A4",
"P@	c #A7A4A3",
"Q@	c #A6A4A6",
"R@	c #A6A4A7",
"S@	c #A7A4A8",
"T@	c #A6A4A8",
"U@	c #A6A3AA",
"V@	c #A5A4A5",
"W@	c #A7A2A9",
"X@	c #A6A3A7",
"Y@	c #A7A3A7",
"Z@	c #A5A3A6",
"`@	c #A7A3A8",
" #	c #A7A3A5",
".#	c #A5A3AA",
"+#	c #A7A3A6",
"@#	c #A6A3A6",
"##	c #A6A3A5",
"$#	c #A8A2A9",
"%#	c #A7A3AA",
"&#	c #A8A3A6",
"*#	c #A6A3A9",
"=#	c #9D9A9D",
"-#	c #BEBEBD",
";#	c #939393",
">#	c #5E5D5E",
",#	c #5C5B5C",
"'#	c #5E5C5E",
")#	c #5D5B5D",
"!#	c #5E5B5E",
"~#	c #514F51",
"{#	c #6A6A6D",
"]#	c #ACACAB",
"^#	c #909090",
"/#	c #919191",
"(#	c #909091",
"_#	c #919090",
":#	c #918F92",
"<#	c #928F92",
"[#	c #918E91",
"}#	c #919092",
"|#	c #928F93",
"1#	c #908F92",
"2#	c #918F93",
"3#	c #918F91",
"4#	c #919093",
"5#	c #908F91",
"6#	c #908F93",
"7#	c #909093",
"8#	c #A19FA2",
". + @ @ # @ @ # @ @ # @ @ # # @ # # @ # # @ # # @ # # @ # # @ # # @ # # @ # # @ @ # @ @ # @ @ # @ @ # @ $ % & ",
". * = = = = = = = = = = = = = = = = = = = = = = = = = = = = = = = = = = = = = = = = = = = = = = = = = = - ; > ",
". * = = = = = = = = = = = = = = = = = = = = = = = = = = = = = = = = = = = = = = = = = = = = = = = = = = , ' > ",
". * = = = = = = = = = = = ) ; ; ; ! ~ ~ ~ ~ ~ ~ ~ = ~ ~ ~ ~ ~ ~ ~ = ~ ~ = = = = = = = = = = = = = = = ~ { ] & ",
". * = = = = = = = = = ^ / ( _ _ _ : / < [ = ~ ~ ~ ~ ~ ~ ~ ~ ~ ~ ~ ~ ~ ~ = = = = = = = = = = = = = = = = } ] | ",
". * = = 1 2 [ = = = 3 4 5 6 7 5 8 9 _ 0 a [ = ~ b c d e f = ~ ~ ~ ~ ~ ~ = = = = = = = = = = = = = = = = g ] | ",
". * = = h i 1 j ) k l _ m n o _ p q r s t u = v w x y z A % = B C % = ~ = = = = = = = = = = D d h E = = } ; F ",
". * = G H I J K l _ _ _ L M N O P Q R S T u = U _ V [ W 1 X Y Z _ `  .= = = = = = = = = = = 3 5 ..u = = g ] | ",
". * = G +.@.#.$.%.&.*._ =.-.;.O >.,.'._ ).= = !._ ~.[ = ~ ~ ~ {._ ].% ^./.` ` ` (.E _.:.` <.) _ [.h [ = }.' | ",
". * = = |.1.2.3.4.5.6._ 7.8.5 9.0.>.a._ t = ~ b.c.d.` e.! = ~ j 5 f./.[ W g.{.h.i.j.%._ k.b l.5 m.n.[ = }.] | ",
". * = G o.p.q.r.s.t.u._ v.w.x.y.z.A.9.B.C.= ~ ~ b.D.{.E.F.< = j _ G.H.= _.~.I.J._ / %._ K.^.L._ M.= = = }.] | ",
". * = = N.O.P.Q.R.S.T.U.V.W.X.s Y.Z.`. +.+= Y ++@+++@+#+_ $+%+#+_ &+%+_.*+=+#+-+U.;+>+_ ' ,+'+_ ; %+Y )+!+] | ",
". . = = ~+{+]+^+/+(+_+ +:+<+[+s }+|+1+y.2+3+++4+5+6+7+8+_ 9+0+a+U.b+)+c+O k )+1 d+e+f+U.g+0+h+d+i+j+)+)+k+] l+",
". * = = m+n+o+p+q+r+s+_ :+t+u+v+w+x+y+z+A+)+++B+C+D+.+E+F+G+H+I+.+J+K+B+L+M+.+N+U.O+P+O g+Q+R+-+S+T+U+3+V+] W+",
". * = = X+Y+Z+`+ @`+.@U.+@@@s s #@$@%@9..+)+++++&@*@=@-@;@U+j+U+B+>@,@0+B+'@'@'@=@)@!@K+)@U+%+~@< {@U+)+]@] ^@",
". * = = h /@(@_@:@<@[@_ v.}@|@1@2@3@4@5@6@U+7@8@9@7@9@0@0@7@a@a@7@7@a@b@7@a@7@0@c@d@e@f@b@g@a@h@9@a@g@b@k+i@j@",
". * = = X /.k@k.l@U.U.m@f n@o@d@o@p@q@r@5+b@s@t@b@b@b@f@u@b@v@u@b@w@b@b@v@b@a@u@b@b@b@w@v@u@x@b@b@b@x@f@y@z@A@",
". * = = = = X % B@B@B@;@= d@d@C@d@d@d@D@E@w@0@b@b@b@u@b@b@w@a@b@u@a@b@f@b@u@b@b@f@b@a@w@a@b@b@f@b@u@u@x@F@G@H@",
". . = = = = = = I@I@I@)+= d@d@h@d@v@C@d@J@a@u@u@b@u@b@w@u@f@K@w@b@b@K@u@b@w@u@b@b@w@f@b@u@v@b@u@b@a@u@J@L@G@M@",
". N@) ) Y+Y+Y+Y+O@>+P@>+Q@R@S@T@R@U@V@R@W@Q@X@Y@Z@`@X@X@X@U@ #X@.#+#@#X@Y@Y@##`@S@$#Q@Y@%# #X@Y@+#@#&#*#=#G@H@",
"-#;#>#>#,#,#k.k.'#)#)#!#!#!#!#!#!#!#!#!#!#!#!#!#!#!#!#!#!#!#!#!#!#!#!#!#!#!#!#!#!#!#!#!#!#!#!#!#!#!#!#!#!#~#{#",
"]#^#^#^#/#(#^#^#_#_#_#_#:#:#<#:#[#}#|#1#[#2#[#1#1#<#1#2#2#1#3#4#:#1#1#5#:#:#1#|#5#4#:#2#:#5#6#:#5#<#:#7#|#5#8#"};
